<?xml version="1.0" encoding="utf-8"?>
<!-- Generator: Adobe Illustrator 28.1.0, SVG Export Plug-In . SVG Version: 6.00 Build 0)  -->
<svg version="1.1" id="Layer_1" xmlns="http://www.w3.org/2000/svg" xmlns:xlink="http://www.w3.org/1999/xlink" x="0px" y="0px"
	 viewBox="0 0 492.2 460.2" style="enable-background:new 0 0 492.2 460.2;" xml:space="preserve">
<style type="text/css">
	.st0{fill:#F2F3F4;stroke:#000000;stroke-width:0.75;stroke-miterlimit:10;}
	.st1{fill:#D8E6EF;stroke:#000000;stroke-width:0.75;stroke-miterlimit:10;}
	.st2{font-family:'ArialMT';}
	.st3{font-size:12px;}
	.st4{fill:none;stroke:#000000;stroke-miterlimit:10;}
	.st5{fill:#D9EDDF;stroke:#000000;stroke-width:0.75;stroke-miterlimit:10;}
	.st6{fill:#DFDBD9;stroke:#0F0D17;stroke-width:0.25;stroke-miterlimit:10;enable-background:new    ;}
	.st7{fill:#DFDBD9;stroke:#060508;stroke-width:0.25;stroke-miterlimit:10;enable-background:new    ;}
	.st8{font-size:11px;}
	.st9{fill:#412977;enable-background:new    ;}
	.st10{fill:#412977;}
	.st11{fill:none;stroke:#000000;stroke-width:0.25;stroke-miterlimit:10;}
	.st12{fill:none;stroke:#000000;stroke-width:0.75;stroke-miterlimit:10;}
	.st13{fill:#2E6E8E;stroke:#07060A;stroke-width:0.25;stroke-miterlimit:10;enable-background:new    ;}
	.st14{fill:#2E6E8E;stroke:#000000;stroke-width:0.25;stroke-miterlimit:10;enable-background:new    ;}
	.st15{fill:none;}
	.st16{fill:#010101;}
	.st17{font-size:7px;}
	.st18{font-size:8px;}
</style>
<rect x="180.9" y="70.6" class="st0" width="116.4" height="20.9"/>
<rect x="180.9" y="8.4" class="st1" width="116.4" height="41.7"/>
<text transform="matrix(1 0 0 1 197.4868 27.4195)"><tspan x="0" y="0" class="st2 st3">Conv 3D (2-&gt;64, </tspan><tspan x="-1.3" y="14.4" class="st2 st3">3×3×3, stride = 1)</tspan></text>
<rect x="180.9" y="49.5" class="st0" width="116.4" height="20.9"/>
<text transform="matrix(1 0 0 1 211.4447 63.601)" class="st2 st3">BatchNorm</text>
<text transform="matrix(1 0 0 1 223.3206 83.9)" class="st2 st3">RELU</text>
<rect x="181.9" y="167.3" class="st0" width="116.4" height="20.9"/>
<rect x="181.9" y="105.2" class="st1" width="116.4" height="41.7"/>
<text transform="matrix(1 0 0 1 191.3698 124.1617)"><tspan x="0" y="0" class="st2 st3">Conv 3D (64-&gt;128, </tspan><tspan x="5.3" y="14.4" class="st2 st3">3×3×3, stride = 2)</tspan></text>
<rect x="181.9" y="146.3" class="st0" width="116.4" height="20.9"/>
<text transform="matrix(1 0 0 1 212.4412 160.3433)" class="st2 st3">BatchNorm</text>
<text transform="matrix(1 0 0 1 224.3171 180.6423)" class="st2 st3">RELU</text>
<g>
	<g>
		<line class="st4" x1="240.1" y1="91.5" x2="240.1" y2="98.1"/>
		<g>
			<polygon points="240.1,105.2 236.1,95.2 240.1,97.6 244.2,95.2 			"/>
		</g>
	</g>
</g>
<g>
	<g>
		<line class="st4" x1="240.1" y1="188.4" x2="240.1" y2="195"/>
		<g>
			<polygon points="240.1,202.1 236.1,192.1 240.1,194.5 244.2,192.1 			"/>
		</g>
	</g>
</g>
<rect x="168.5" y="202.3" class="st5" width="144.9" height="56.4"/>
<text transform="matrix(1 0 0 1 191.2642 230.4769)"><tspan x="0" y="0" class="st2 st3">6 × ResNet blocks</tspan><tspan x="-16.5" y="14.4" class="st2 st3">(Conv 3D + BN + RELU)</tspan></text>
<rect x="182.7" y="275.8" class="st1" width="116.4" height="41.7"/>
<text transform="matrix(1 0 0 1 203.3747 285.7552)"><tspan x="0" y="0" class="st2 st3">ConvTrans 3D </tspan><tspan x="9.5" y="14.4" class="st2 st3">(128 -&gt; 64, </tspan><tspan x="-6.8" y="28.8" class="st2 st3">3×3×3, stride = 2)</tspan></text>
<rect x="182.7" y="338.6" class="st0" width="116.4" height="20.9"/>
<rect x="182.7" y="317.5" class="st0" width="116.4" height="20.9"/>
<text transform="matrix(1 0 0 1 212.3208 332.452)" class="st2 st3">BatchNorm</text>
<text transform="matrix(1 0 0 1 229.1605 352.944)" class="st2 st3">RELU</text>
<g>
	<g>
		<line class="st4" x1="239.1" y1="260.4" x2="239.1" y2="267"/>
		<g>
			<polygon points="239.1,274.1 235.1,264.1 239.1,266.5 243.2,264.1 			"/>
		</g>
	</g>
</g>
<g>
	<g>
		<line class="st4" x1="240.1" y1="363.1" x2="240.1" y2="369.7"/>
		<g>
			<polygon points="240.1,376.8 236.1,366.8 240.1,369.2 244.2,366.8 			"/>
		</g>
	</g>
</g>
<rect x="181.9" y="376.8" class="st1" width="116.4" height="53.9"/>
<text transform="matrix(1 0 0 1 219.3336 394.178)"><tspan x="0" y="0" class="st2 st3">Padding +</tspan><tspan x="-18.7" y="14.4" class="st2 st3">Conv 3D (64-&gt;1, </tspan><tspan x="-20" y="28.8" class="st2 st3">3×3×3, stride = 1)</tspan></text>
<rect x="181.9" y="430.7" class="st0" width="116.4" height="20.9"/>
<text transform="matrix(1 0 0 1 230.1084 444.5929)" class="st2 st3">RELU</text>
<g>
	<g>
		
			<image style="overflow:visible;enable-background:new    ;" width="650" height="650" id="image6d480e1612_00000050632385210166824490000012811916433762700216_" xlink:href="395C092AF1F51169.png"  transform="matrix(0.1092 0 0 -0.1092 12.4881 296.6291)">
		</image>
	</g>
	<polygon class="st6" points="83.3,225.9 12.3,225.9 47.9,211.4 118.9,211.4 	"/>
	<polygon class="st7" points="118.9,282 83.7,296.6 83.7,226.3 118.9,211.7 	"/>
</g>
<text transform="matrix(1 0 0 1 26.7821 311.9768)" class="st2 st8">3D Charge map</text>
<g>
	<g>
		
			<image style="overflow:visible;enable-background:new    ;" width="650" height="650" id="image2db155b47e_00000062181842575713065220000001184151051174321793_" xlink:href="395C092AF1F5116B.png"  transform="matrix(0.1098 0 0 -0.1061 12.2924 219.5308)">
		</image>
	</g>
	<polygon class="st9" points="83.3,150.5 12.3,150.5 47.9,136 118.9,136 	"/>
	<polygon class="st10" points="118.9,205 83.7,219.4 83.7,150.6 118.9,136.2 	"/>
</g>
<text transform="matrix(1 0 0 1 21.1583 129.8258)" class="st2 st8">3D geometry map</text>
<rect x="12.5" y="225.6" class="st11" width="71" height="71"/>
<g>
	<line class="st12" x1="108.6" y1="168.6" x2="133.9" y2="168.6"/>
	<line class="st12" x1="102.2" y1="247.9" x2="133.8" y2="247.9"/>
	<line class="st12" x1="133.9" y1="168.6" x2="133.9" y2="247.4"/>
	<line class="st12" x1="133.8" y1="208" x2="151.7" y2="208"/>
	<line class="st12" x1="151.7" y1="21.3" x2="151.7" y2="208.6"/>
	<g>
		<g>
			<line class="st12" x1="151.7" y1="21.2" x2="171.2" y2="21.2"/>
			<g>
				<polygon points="180.9,21.2 167.3,26.8 170.5,21.2 167.3,15.6 				"/>
			</g>
		</g>
	</g>
</g>
<g>
	
		<image style="overflow:visible;enable-background:new    ;" width="650" height="650" id="image3664f1f4ad_00000125566796213862182320000014741694268478794167_" xlink:href="395C092AF1F5116E.png"  transform="matrix(0.1092 0 0 -0.1092 337.2251 259.6647)">
	</image>
</g>
<polygon class="st13" points="443.5,245 408.2,259.6 408.2,189.3 443.5,174.7 "/>
<polygon class="st14" points="408.2,189.2 337.2,189.2 372.9,174.7 443.9,174.7 "/>
<text transform="matrix(1 0 0 1 326.9344 273.8182)" class="st2 st8">3D ion distribution map</text>
<rect x="337.2" y="188.9" class="st11" width="71" height="71"/>
<g>
	<g>
		<g>
			<line class="st12" x1="375.9" y1="289.3" x2="375.9" y2="436.6"/>
			<g>
				<polygon points="375.9,282.3 371.9,292.1 375.9,289.8 379.9,292.1 				"/>
			</g>
		</g>
	</g>
	<line class="st12" x1="297.6" y1="436.6" x2="375.9" y2="436.6"/>
</g>
<g id="axes_4">
	<g id="patch_14">
		<path class="st15" d="M451,263.7h4.7v-94.4H451V263.7z"/>
	</g>
	
		<image style="overflow:visible;enable-background:new    ;" width="66" height="1331" id="image56f339a7d5_00000002370585528694466620000010456016616263870648_" xlink:href="395C092AF1F5116F.png"  transform="matrix(7.096463e-02 0 0 -7.096463e-02 450.9917 263.7076)">
	</image>
	<g id="matplotlib.axis_7">
	</g>
	<g id="matplotlib.axis_8">
		<g id="ytick_21">
			<g id="line2d_27">
				<g>
					<g>
						<path id="m8cf156a630_00000062871654793404404780000006751988227509598370_" class="st16" d="M455.7,188.2h1.2"/>
					</g>
				</g>
			</g>
		</g>
		<g id="ytick_22">
			<g id="text_28">
				<text transform="matrix(1 0 0 1 458.1862 170.6268)" class="st16 st2 st17">2.5</text>
			</g>
		</g>
	</g>
	<g id="LineCollection_2">
	</g>
	<g id="patch_15">
		<path class="st15" d="M451,263.7h2.4h2.4v-94.4h-2.4H451V263.7z"/>
	</g>
</g>
<g id="ytick_22_00000069360727029833025240000013876395711839784099_">
	<g id="text_28_00000171686923735562358100000004626853915058539964_">
		<text transform="matrix(1 0 0 1 458.3885 263.7018)" class="st16 st2 st17">0.0</text>
	</g>
</g>
<text transform="matrix(0 -1 1 0 466.3378 249.1646)" class="st2 st18">Concentration (M)</text>
</svg>
